<svg width="512" height="505" viewBox="0 0 512 505" fill="none" xmlns="http://www.w3.org/2000/svg">
<path d="M174.7 45.1C192.2 17 223 0 256 0C289 0 319.8 17 337.3 45.1L375.9 106.8L402.9 91.2C411.3 86.3 421.8 87 429.5 92.9C437.2 98.8 440.6 108.8 438.1 118.2L414.7 205.6C411.3 218.4 398.1 226 385.3 222.6L297.9 199.2C288.5 196.7 281.6 188.8 280.3 179.2C279 169.6 283.7 160.1 292.1 155.3L320.5 138.9L283 79C277.2 69.7 267 64 256 64C245 64 234.8 69.7 229 79L211.5 107C202.3 121.8 182.9 126.5 167.9 117.5C152.6 108.3 147.7 88.3 157.2 73.1L174.7 45.1ZM429.5 251.9C444.5 242.9 463.9 247.6 473.1 262.4L497.5 301.5C506.9 316.6 511.9 333.9 512.1 351.7C512.4 404.8 469.4 448.1 416.3 448.1L320 448V480C320 489.7 314.2 498.5 305.2 502.2C296.2 505.9 285.9 503.9 279 497L215 433C205.6 423.6 205.6 408.4 215 399.1L279 335.1C285.9 328.2 296.2 326.2 305.2 329.9C314.2 333.6 320 342.4 320 352.1V384.1H416.2C433.8 384.1 448.1 369.7 448 352.1C448 346.2 446.3 340.4 443.2 335.4L418.8 296.3C409.3 281.1 414.1 261.1 429.5 251.9ZM64.9 220.9L36 204.2C27.6 199.3 22.9 189.9 24.2 180.3C25.5 170.7 32.4 162.8 41.8 160.3L129.2 136.9C142 133.5 155.2 141.1 158.6 153.9L182 241.2C184.5 250.6 181.1 260.5 173.4 266.5C165.7 272.5 155.2 273.1 146.8 268.2L120.3 252.9L68.8 335.3C65.7 340.3 64 346.1 64 352C63.9 369.6 78.2 384 95.8 384H128C145.7 384 160 398.3 160 416C160 433.7 145.7 448 128 448H95.8C42.7 448 -0.299996 404.8 3.87791e-06 351.6C0.100004 333.8 5.1 316.5 14.6 301.4L64.9 220.9Z" fill="#CD533B"/>
</svg>
